<?xml version="1.0" encoding="UTF-8"?><svg xmlns="http://www.w3.org/2000/svg" viewBox="420 290 490 410"><defs><style>.cls-1{stroke-width:0px;}</style></defs><path class="cls-1" d="m674.48,423.79c14.83-31.81,29.66-63.61,44.49-95.42,35.61-3.34,71.21-6.67,106.82-10.01-8.43,31.47-16.86,62.94-25.3,94.4-42.01,3.67-84.01,7.35-126.02,11.03Z"/><path class="cls-1" d="m501.48,554.82l35.91-77.01c5.36-11.49,16.43-19.24,29.06-20.35l291.39-25.49-25.15,93.87-331.2,28.98Z"/><polygon class="cls-1" points="489.75 579.99 887.97 545.15 862.74 639.28 445.06 675.82 489.75 579.99"/><path class="cls-1" d="m732.48,303.54c-8.73-.73-17.47-1.49-26.2-2.24l-11.69,24.68-.08.18c-11.03,23.69-22.06,47.36-33.11,71.04-10.04,21.55-31.69,35.31-55.48,35.29-10.62-.02-21.21-.02-31.83-.04-25.55-.02-48.8,14.79-59.6,37.95l-96.89,207.82c-16.58-8.06-33.16-16.11-49.73-24.17-19.92,4.86-39.83,9.72-59.75,14.58,31.55-67.66,63.08-135.31,94.65-202.97,10.04-21.55,31.69-35.31,55.46-35.29,18.8.02,37.59.04,56.39.06,10.66,0,20.34-6.16,24.86-15.83l44.88-96.26c4.16-8.8,8.32-17.6,12.48-26.4-6.18-.53-12.38-1.05-18.56-1.58,34.88-22.48,69.74-44.96,104.59-67.44,16.54,26.88,33.08,53.73,49.61,80.61Z"/></svg>
