<?xml version="1.0" encoding="UTF-8"?><svg id="Calque_1" xmlns="http://www.w3.org/2000/svg" viewBox="0 0 2884.42 1097.34"><defs><style>.cls-1{fill:#fff;stroke-width:0px;}</style></defs><polygon class="cls-1" points="1033.72 435.74 1009.25 527.05 886.87 537.75 929.9 445.47 1033.72 435.74"/><path class="cls-1" d="m1065.76,549.34l-24.32,90.79-327.57,28.66,34.81-74.66c5.11-10.96,15.78-18.43,27.83-19.48l289.25-25.31Z"/><polygon class="cls-1" points="1095.89 662.52 1071.49 753.57 657.44 789.79 700.67 697.1 1095.89 662.52"/><path class="cls-1" d="m939.57,417.49c-7.71-.65-15.42-1.32-23.13-1.98l-1.15-.1-12.15,25.65-.06.16c-11.03,23.68-22.07,47.35-33.12,71.04-9.75,20.93-30.98,34.44-54.11,34.43-5.24-.01-10.48-.02-15.72-.02-5.37-.01-10.74-.01-16.11-.02h-.05c-26.01,0-49.91,15.23-60.91,38.81l-96.24,206.44-48.85-23.73-57.24,13.96,28.39-60.9c21.64-46.41,43.28-92.82,64.94-139.23,9.75-20.92,30.95-34.43,54.04-34.43h.05l56.39.06c11.19,0,21.48-6.55,26.22-16.69l44.87-96.25,13.4-28.35-2.15-.19c-3.08-.27-6.17-.53-9.26-.79-1.64-.14-3.28-.28-4.92-.42,33.22-21.41,66.42-42.82,99.62-64.23l47.25,76.78Z"/><path class="cls-1" d="m2329.82,380.45c-33.66,0-64.91,4.64-92.91,13.78-27.94,9.14-52.94,22.21-74.3,38.84-21.37,16.66-39.14,36.7-52.82,59.57-2.14,3.59-4.21,7.3-6.14,11.02l-2.12,4.1-.69-4.56c-1.68-11.11-4.51-21.86-8.4-31.95-10.92-28.16-29.65-50.56-55.67-66.58-26.09-16.07-59.26-24.22-98.6-24.22h-159.96l-35.75,202.72-1.93-5.15c-.48-1.28-1.03-2.63-1.67-4.12-7.35-16.61-19.74-29.79-36.84-39.17-17.19-9.43-38.74-14.21-64.05-14.21h-52.67c-5.38,0-9.94-1.28-13.53-3.8-3.62-2.51-6.2-5.76-7.66-9.65-1.45-3.86-1.76-8.14-.94-12.74.79-4.54,2.59-8.77,5.36-12.56,2.75-3.79,6.36-6.86,10.74-9.13,6.31-3.28,12.28-3.39,14.53-3.43,10.24-.21,56.47.07,123.38,1.33l32.68-90.03c-13.91-.09-93.15-.52-155.6-.06-5.17.04-17.27.14-32.69,3.69-10.38,2.39-20.68,6.04-30.59,10.83-19.84,9.61-36.91,23.35-50.73,40.84-13.75,17.43-22.83,38.21-26.98,61.75-4.2,23.84-2.18,44.45,6.01,61.26,8.17,16.81,21.04,29.82,38.27,38.68,17.28,8.89,37.79,13.39,60.98,13.39h48.86c6.4,0,11.67,1.37,15.65,4.07,3.95,2.7,6.82,6.31,8.55,10.74,1.71,4.39,2.1,9.32,1.17,14.65-.89,4.95-2.96,9.64-6.15,13.93-3.23,4.33-7.27,7.85-12.03,10.46-4.79,2.65-10.46,3.99-16.85,3.99h-235.63c-7.7,0-13.75-2.84-18-8.46-4.21-5.57-5.69-12.09-4.4-19.36l45.94-260.46h-114.22l-45.83,259.9c-3.76,21.33-2.02,41.05,5.17,58.62,7.18,17.53,19.4,31.81,36.32,42.44,16.94,10.66,38.35,16.06,63.64,16.06h270.36c22.12,0,43.42-4.88,63.29-14.5,19.85-9.62,37.1-23.9,51.27-42.46,1.49-1.94,2.92-3.95,4.26-5.97l3.97-5.95-12.14,68.88h159.44c39.41,0,75.52-8.16,107.32-24.26,31.8-16.08,58.54-38.58,79.48-66.87,7.52-10.15,14.15-20.95,19.72-32.08l2.07-4.14.75,4.56c.59,3.57,1.35,7.27,2.26,11.02,5.58,22.78,16.15,42.75,31.4,59.34,15.26,16.57,35.58,29.59,60.4,38.69,24.86,9.12,54.55,13.74,88.25,13.74h56.28l15.65-88.74h-51.97c-16.8,0-31.34-2.59-43.23-7.72-11.98-5.17-21.53-12.35-28.4-21.36-6.89-9.06-11.43-19.78-13.5-31.88-2.08-12.08-1.89-25.22.56-39.07,2.43-13.84,6.87-26.95,13.18-38.97,3.17-6.04,6.82-11.72,10.93-17.01,4.1-5.28,8.66-10.18,13.64-14.63,9.96-8.94,21.95-16.06,35.64-21.18,13.64-5.11,29.06-7.7,45.84-7.7h37.66l.88-2.61c9.76-28.71,19.52-57.42,29.29-86.15h-55.45Zm-346.03,188.77c-1.79,10.16-4.4,19.72-7.8,28.62-3.4,8.89-7.6,17.12-12.57,24.62-9.95,14.98-22.18,26.55-36.38,34.41-14.18,7.87-29.73,11.86-46.21,11.86h-39.24l35.19-199.52h38.7c16.53,0,30.72,4.11,42.19,12.22,11.46,8.1,19.69,19.77,24.45,34.69,4.7,14.82,5.26,32.69,1.67,53.1Z"/></svg>